G04 #@! TF.FileFunction,Soldermask,Bot*
%FSLAX46Y46*%
G04 Gerber Fmt 4.6, Leading zero omitted, Abs format (unit mm)*
G04 Created by KiCad (PCBNEW 4.0.2-stable) date Montag, 25. April 2016 19:54:46*
%MOMM*%
G01*
G04 APERTURE LIST*
%ADD10C,0.100000*%
%ADD11R,1.727200X1.727200*%
%ADD12O,1.727200X1.727200*%
%ADD13R,2.540000X2.540000*%
%ADD14C,2.540000*%
%ADD15R,2.032000X2.032000*%
%ADD16O,2.032000X2.032000*%
%ADD17C,1.300000*%
%ADD18R,1.300000X1.300000*%
%ADD19R,2.032000X1.727200*%
%ADD20O,2.032000X1.727200*%
%ADD21C,2.000000*%
%ADD22C,6.000000*%
%ADD23C,1.000000*%
G04 APERTURE END LIST*
D10*
X200000000Y-150000000D02*
X200000000Y-50000000D01*
X100000000Y-150000000D02*
X200000000Y-150000000D01*
X100000000Y-50000000D02*
X200000000Y-50000000D01*
X100000000Y-150000000D02*
X100000000Y-50000000D01*
D11*
X148966000Y-70285732D03*
D12*
X148966000Y-67745732D03*
X151506000Y-70285732D03*
X151506000Y-67745732D03*
X154046000Y-70285732D03*
X154046000Y-67745732D03*
X156586000Y-70285732D03*
X156586000Y-67745732D03*
X159126000Y-70285732D03*
X159126000Y-67745732D03*
X161666000Y-70285732D03*
X161666000Y-67745732D03*
X164206000Y-70285732D03*
X164206000Y-67745732D03*
X166746000Y-70285732D03*
X166746000Y-67745732D03*
X169286000Y-70285732D03*
X169286000Y-67745732D03*
X171826000Y-70285732D03*
X171826000Y-67745732D03*
X174366000Y-70285732D03*
X174366000Y-67745732D03*
X176906000Y-70285732D03*
X176906000Y-67745732D03*
X179446000Y-70285732D03*
X179446000Y-67745732D03*
D11*
X175360000Y-78200000D03*
D12*
X175360000Y-75660000D03*
X177900000Y-78200000D03*
X177900000Y-75660000D03*
D11*
X182000000Y-116420000D03*
D12*
X184540000Y-116420000D03*
X182000000Y-118960000D03*
X184540000Y-118960000D03*
X182000000Y-121500000D03*
X184540000Y-121500000D03*
X182000000Y-124040000D03*
X184540000Y-124040000D03*
X182000000Y-126580000D03*
X184540000Y-126580000D03*
D11*
X196540000Y-102750000D03*
D12*
X194000000Y-102750000D03*
X196540000Y-100210000D03*
X194000000Y-100210000D03*
X196540000Y-97670000D03*
X194000000Y-97670000D03*
X196540000Y-95130000D03*
X194000000Y-95130000D03*
X196540000Y-92590000D03*
X194000000Y-92590000D03*
X196540000Y-90050000D03*
X194000000Y-90050000D03*
X196540000Y-87510000D03*
X194000000Y-87510000D03*
X196540000Y-84970000D03*
X194000000Y-84970000D03*
X196540000Y-82430000D03*
X194000000Y-82430000D03*
X196540000Y-79890000D03*
X194000000Y-79890000D03*
X196540000Y-77350000D03*
X194000000Y-77350000D03*
D13*
X195300000Y-66540000D03*
D14*
X195300000Y-61460000D03*
D15*
X193900000Y-72400000D03*
D16*
X196440000Y-72400000D03*
D17*
X114200000Y-116300000D03*
D18*
X117700000Y-116300000D03*
D17*
X114200000Y-125000000D03*
D18*
X117700000Y-125000000D03*
D17*
X114200000Y-133700000D03*
D18*
X117700000Y-133700000D03*
D17*
X114200000Y-142400000D03*
D18*
X117700000Y-142400000D03*
D17*
X115200000Y-62600000D03*
D18*
X111700000Y-62600000D03*
D17*
X115200000Y-76400000D03*
D18*
X111700000Y-76400000D03*
D17*
X115200000Y-93100000D03*
D18*
X111700000Y-93100000D03*
D17*
X115200000Y-106900000D03*
D18*
X111700000Y-106900000D03*
D19*
X125600000Y-123560000D03*
D20*
X125600000Y-126100000D03*
X125600000Y-128640000D03*
D19*
X125600000Y-132360000D03*
D20*
X125600000Y-134900000D03*
X125600000Y-137440000D03*
D21*
X103500000Y-117780000D03*
X103500000Y-122860000D03*
X103500000Y-127940000D03*
X103500000Y-133020000D03*
X103500000Y-138100000D03*
X103500000Y-143180000D03*
X103500000Y-56820000D03*
X103500000Y-61900000D03*
X103500000Y-66980000D03*
X103500000Y-72060000D03*
X103500000Y-77140000D03*
X103500000Y-82220000D03*
X103500000Y-87300000D03*
X103500000Y-92380000D03*
X103500000Y-97460000D03*
X103500000Y-102540000D03*
X103500000Y-107620000D03*
X103500000Y-112700000D03*
D22*
X109000000Y-55000000D03*
X109000000Y-145000000D03*
X195000000Y-55000000D03*
X195000000Y-145000000D03*
D18*
X175000000Y-59400000D03*
D17*
X175000000Y-54400000D03*
D18*
X156600000Y-59400000D03*
D17*
X156600000Y-54400000D03*
D11*
X177983679Y-118951537D03*
D12*
X177983679Y-116411537D03*
X175443679Y-118951537D03*
X175443679Y-116411537D03*
X172903679Y-118951537D03*
X172903679Y-116411537D03*
X170363679Y-118951537D03*
X170363679Y-116411537D03*
X167823679Y-118951537D03*
X167823679Y-116411537D03*
X165283679Y-118951537D03*
X165283679Y-116411537D03*
X162743679Y-118951537D03*
X162743679Y-116411537D03*
X160203679Y-118951537D03*
X160203679Y-116411537D03*
X157663679Y-118951537D03*
X157663679Y-116411537D03*
X155123679Y-118951537D03*
X155123679Y-116411537D03*
D11*
X177983679Y-146891537D03*
D12*
X177983679Y-144351537D03*
X175443679Y-146891537D03*
X175443679Y-144351537D03*
X172903679Y-146891537D03*
X172903679Y-144351537D03*
X170363679Y-146891537D03*
X170363679Y-144351537D03*
X167823679Y-146891537D03*
X167823679Y-144351537D03*
X165283679Y-146891537D03*
X165283679Y-144351537D03*
X162743679Y-146891537D03*
X162743679Y-144351537D03*
X160203679Y-146891537D03*
X160203679Y-144351537D03*
X157663679Y-146891537D03*
X157663679Y-144351537D03*
X155123679Y-146891537D03*
X155123679Y-144351537D03*
D23*
X169600000Y-125600000D03*
X170870000Y-125600000D03*
X168330000Y-125600000D03*
X164100000Y-125600000D03*
X165370000Y-125600000D03*
X162830000Y-125600000D03*
M02*
