G04 #@! TF.FileFunction,Soldermask,Bot*
%FSLAX46Y46*%
G04 Gerber Fmt 4.6, Leading zero omitted, Abs format (unit mm)*
G04 Created by KiCad (PCBNEW 4.0.2-stable) date Dienstag, 06. September 2016 13:57:25*
%MOMM*%
G01*
G04 APERTURE LIST*
%ADD10C,0.100000*%
%ADD11R,1.727200X1.727200*%
%ADD12O,1.727200X1.727200*%
%ADD13R,2.032000X2.032000*%
%ADD14O,2.032000X2.032000*%
%ADD15R,2.032000X1.727200*%
%ADD16O,2.032000X1.727200*%
%ADD17C,2.000000*%
%ADD18C,6.000000*%
%ADD19R,1.300000X1.300000*%
%ADD20C,1.300000*%
%ADD21C,1.000000*%
%ADD22R,3.500120X3.500120*%
%ADD23C,1.600000*%
%ADD24C,1.500000*%
G04 APERTURE END LIST*
D10*
X200000000Y-150000000D02*
X200000000Y-50000000D01*
X100000000Y-150000000D02*
X200000000Y-150000000D01*
X100000000Y-50000000D02*
X200000000Y-50000000D01*
X100000000Y-150000000D02*
X100000000Y-50000000D01*
D11*
X148966000Y-70285732D03*
D12*
X148966000Y-67745732D03*
X151506000Y-70285732D03*
X151506000Y-67745732D03*
X154046000Y-70285732D03*
X154046000Y-67745732D03*
X156586000Y-70285732D03*
X156586000Y-67745732D03*
X159126000Y-70285732D03*
X159126000Y-67745732D03*
X161666000Y-70285732D03*
X161666000Y-67745732D03*
X164206000Y-70285732D03*
X164206000Y-67745732D03*
X166746000Y-70285732D03*
X166746000Y-67745732D03*
X169286000Y-70285732D03*
X169286000Y-67745732D03*
X171826000Y-70285732D03*
X171826000Y-67745732D03*
X174366000Y-70285732D03*
X174366000Y-67745732D03*
X176906000Y-70285732D03*
X176906000Y-67745732D03*
X179446000Y-70285732D03*
X179446000Y-67745732D03*
D11*
X175360000Y-78200000D03*
D12*
X175360000Y-75660000D03*
X177900000Y-78200000D03*
X177900000Y-75660000D03*
D11*
X185960000Y-115420000D03*
D12*
X188500000Y-115420000D03*
X185960000Y-117960000D03*
X188500000Y-117960000D03*
X185960000Y-120500000D03*
X188500000Y-120500000D03*
X185960000Y-123040000D03*
X188500000Y-123040000D03*
X185960000Y-125580000D03*
X188500000Y-125580000D03*
D13*
X184300000Y-70300000D03*
D14*
X184300000Y-67760000D03*
D15*
X147800000Y-111240000D03*
D16*
X147800000Y-108700000D03*
X147800000Y-106160000D03*
D15*
X153600000Y-111240000D03*
D16*
X153600000Y-108700000D03*
X153600000Y-106160000D03*
D17*
X103500000Y-117780000D03*
X103500000Y-122860000D03*
X103500000Y-127940000D03*
X103500000Y-133020000D03*
X103500000Y-138100000D03*
X103500000Y-143180000D03*
X103500000Y-56820000D03*
X103500000Y-61900000D03*
X103500000Y-66980000D03*
X103500000Y-72060000D03*
X103500000Y-77140000D03*
X103500000Y-82220000D03*
X103500000Y-87300000D03*
X103500000Y-92380000D03*
X103500000Y-97460000D03*
X103500000Y-102540000D03*
X103500000Y-107620000D03*
X103500000Y-112700000D03*
D18*
X109000000Y-55000000D03*
X109000000Y-145000000D03*
X195000000Y-55000000D03*
X195000000Y-145000000D03*
D19*
X174000000Y-59400000D03*
D20*
X174000000Y-54400000D03*
D19*
X155600000Y-59400000D03*
D20*
X155600000Y-54400000D03*
D11*
X180230000Y-114930000D03*
D12*
X180230000Y-112390000D03*
X177690000Y-114930000D03*
X177690000Y-112390000D03*
X175150000Y-114930000D03*
X175150000Y-112390000D03*
X172610000Y-114930000D03*
X172610000Y-112390000D03*
X170070000Y-114930000D03*
X170070000Y-112390000D03*
X167530000Y-114930000D03*
X167530000Y-112390000D03*
X164990000Y-114930000D03*
X164990000Y-112390000D03*
X162450000Y-114930000D03*
X162450000Y-112390000D03*
X159910000Y-114930000D03*
X159910000Y-112390000D03*
X157370000Y-114930000D03*
X157370000Y-112390000D03*
D11*
X180230000Y-142870000D03*
D12*
X180230000Y-140330000D03*
X177690000Y-142870000D03*
X177690000Y-140330000D03*
X175150000Y-142870000D03*
X175150000Y-140330000D03*
X172610000Y-142870000D03*
X172610000Y-140330000D03*
X170070000Y-142870000D03*
X170070000Y-140330000D03*
X167530000Y-142870000D03*
X167530000Y-140330000D03*
X164990000Y-142870000D03*
X164990000Y-140330000D03*
X162450000Y-142870000D03*
X162450000Y-140330000D03*
X159910000Y-142870000D03*
X159910000Y-140330000D03*
X157370000Y-142870000D03*
X157370000Y-140330000D03*
D21*
X171770000Y-121600000D03*
X173040000Y-121600000D03*
X170500000Y-121600000D03*
X166270000Y-121600000D03*
X167540000Y-121600000D03*
X165000000Y-121600000D03*
D13*
X180900000Y-92600000D03*
D14*
X183440000Y-92600000D03*
D19*
X138100000Y-121400000D03*
D20*
X138100000Y-119400000D03*
D19*
X142000000Y-117200000D03*
D20*
X142000000Y-115200000D03*
D19*
X135000000Y-91300000D03*
D20*
X137000000Y-91300000D03*
D19*
X135000000Y-108700000D03*
D20*
X137000000Y-108700000D03*
D15*
X124100000Y-90960000D03*
D16*
X124100000Y-93500000D03*
X124100000Y-96040000D03*
D15*
X124100000Y-109040000D03*
D16*
X124100000Y-106500000D03*
X124100000Y-103960000D03*
D19*
X135000000Y-60800000D03*
D20*
X137000000Y-60800000D03*
D19*
X135000000Y-78200000D03*
D20*
X137000000Y-78200000D03*
D15*
X124100000Y-60360000D03*
D16*
X124100000Y-62900000D03*
X124100000Y-65440000D03*
D15*
X124100000Y-78640000D03*
D16*
X124100000Y-76100000D03*
X124100000Y-73560000D03*
D22*
X188499860Y-64200000D03*
X194499340Y-64200000D03*
X191499600Y-59501000D03*
D23*
X196770000Y-113600000D03*
X194230000Y-112330000D03*
X196770000Y-111060000D03*
X194230000Y-109790000D03*
X196770000Y-108520000D03*
X194230000Y-107250000D03*
X196770000Y-105980000D03*
X194230000Y-104710000D03*
X196770000Y-103440000D03*
X194230000Y-102170000D03*
X196770000Y-100900000D03*
X194230000Y-99630000D03*
D24*
X194970000Y-115000000D03*
D11*
X196540000Y-92100000D03*
D12*
X194000000Y-92100000D03*
X196540000Y-89560000D03*
X194000000Y-89560000D03*
X196540000Y-87020000D03*
X194000000Y-87020000D03*
X196540000Y-84480000D03*
X194000000Y-84480000D03*
X196540000Y-81940000D03*
X194000000Y-81940000D03*
X196540000Y-79400000D03*
X194000000Y-79400000D03*
X196540000Y-76860000D03*
X194000000Y-76860000D03*
X196540000Y-74320000D03*
X194000000Y-74320000D03*
D19*
X125500000Y-118700000D03*
D20*
X120500000Y-118700000D03*
D19*
X116900000Y-125200000D03*
D20*
X111900000Y-125200000D03*
D19*
X125500000Y-142300000D03*
D20*
X120500000Y-142300000D03*
D19*
X116900000Y-135800000D03*
D20*
X111900000Y-135800000D03*
X111200000Y-96600000D03*
D19*
X113700000Y-96600000D03*
D20*
X111200000Y-89800000D03*
D19*
X113700000Y-89800000D03*
D20*
X111200000Y-103400000D03*
D19*
X113700000Y-103400000D03*
D20*
X111300000Y-110200000D03*
D19*
X113800000Y-110200000D03*
D20*
X111200000Y-67300000D03*
D19*
X113700000Y-67300000D03*
D20*
X111200000Y-60500000D03*
D19*
X113700000Y-60500000D03*
D20*
X111200000Y-74100000D03*
D19*
X113700000Y-74100000D03*
D20*
X111200000Y-80900000D03*
D19*
X113700000Y-80900000D03*
M02*
