M48
;DRILL file {KiCad 4.0.2-stable} date Dienstag, 06. September 2016 13:57:37
;FORMAT={-:-/ absolute / metric / decimal}
FMAT,2
METRIC,TZ
T1C0.600
T2C0.800
T3C0.900
T4C1.001
T5C1.016
T6C1.300
T7C1.500
T8C3.100
%
G90
G05
M71
T1
X165.Y-121.6
X166.27Y-121.6
X167.54Y-121.6
X170.5Y-121.6
X171.77Y-121.6
X173.04Y-121.6
T2
X111.2Y-60.5
X111.2Y-67.3
X111.2Y-74.1
X111.2Y-80.9
X111.2Y-89.8
X111.2Y-96.6
X111.2Y-103.4
X111.3Y-110.2
X111.9Y-125.2
X111.9Y-135.8
X113.7Y-60.5
X113.7Y-67.3
X113.7Y-74.1
X113.7Y-80.9
X113.7Y-89.8
X113.7Y-96.6
X113.7Y-103.4
X113.8Y-110.2
X116.9Y-125.2
X116.9Y-135.8
X120.5Y-118.7
X120.5Y-142.3
X125.5Y-118.7
X125.5Y-142.3
X135.Y-60.8
X135.Y-78.2
X135.Y-91.3
X135.Y-108.7
X137.Y-60.8
X137.Y-78.2
X137.Y-91.3
X137.Y-108.7
X138.1Y-119.4
X138.1Y-121.4
X142.Y-115.2
X142.Y-117.2
X155.6Y-54.4
X155.6Y-59.4
X174.Y-54.4
X174.Y-59.4
X194.23Y-99.63
X194.23Y-102.17
X194.23Y-104.71
X194.23Y-107.25
X194.23Y-109.79
X194.23Y-112.33
X196.77Y-100.9
X196.77Y-103.44
X196.77Y-105.98
X196.77Y-108.52
X196.77Y-111.06
X196.77Y-113.6
T3
X120.6Y-122.3
X120.6Y-125.7
X120.6Y-135.3
X120.6Y-138.7
X131.7Y-130.5
X134.Y-124.6
X136.3Y-120.3
X137.3Y-133.
X137.4Y-128.
X137.5Y-102.9
X141.2Y-107.2
X141.3Y-70.5
X142.Y-111.7
X142.3Y-100.
X143.8Y-66.6
X143.8Y-69.8
X144.3Y-88.
X144.8Y-114.5
X145.3Y-52.
X146.345Y-77.955
X146.368Y-82.915
X148.7Y-95.4
X150.3Y-84.6
X155.1Y-92.2
X155.6Y-103.3
X157.4Y-122.6
X157.4Y-129.
X159.987Y-97.413
X161.1Y-76.7
X161.6Y-110.1
X165.7Y-100.5
X165.75Y-96.3
X166.1Y-76.7
X168.6Y-90.
X169.2Y-52.
X171.4Y-94.1
X171.8Y-73.6
X173.5Y-104.2
X174.2Y-92.7
X175.5Y-88.1
X175.5Y-90.7
X176.1Y-103.2
X177.4Y-89.4
X177.5Y-98.2
X179.6Y-96.3
X180.135Y-125.565
X181.2Y-105.6
X182.4Y-112.4
X183.5Y-115.6
X183.5Y-119.3
X184.3Y-110.9
X184.7Y-96.3
X184.8Y-102.5
X185.209Y-98.234
X189.9Y-100.5
X189.9Y-111.
X191.932Y-111.
T5
X124.1Y-60.36
X124.1Y-62.9
X124.1Y-65.44
X124.1Y-73.56
X124.1Y-76.1
X124.1Y-78.64
X124.1Y-90.96
X124.1Y-93.5
X124.1Y-96.04
X124.1Y-103.96
X124.1Y-106.5
X124.1Y-109.04
X147.8Y-106.16
X147.8Y-108.7
X147.8Y-111.24
X148.966Y-67.746
X148.966Y-70.286
X151.506Y-67.746
X151.506Y-70.286
X153.6Y-106.16
X153.6Y-108.7
X153.6Y-111.24
X154.046Y-67.746
X154.046Y-70.286
X156.586Y-67.746
X156.586Y-70.286
X157.37Y-112.39
X157.37Y-114.93
X157.37Y-140.33
X157.37Y-142.87
X159.126Y-67.746
X159.126Y-70.286
X159.91Y-112.39
X159.91Y-114.93
X159.91Y-140.33
X159.91Y-142.87
X161.666Y-67.746
X161.666Y-70.286
X162.45Y-112.39
X162.45Y-114.93
X162.45Y-140.33
X162.45Y-142.87
X164.206Y-67.746
X164.206Y-70.286
X164.99Y-112.39
X164.99Y-114.93
X164.99Y-140.33
X164.99Y-142.87
X166.746Y-67.746
X166.746Y-70.286
X167.53Y-112.39
X167.53Y-114.93
X167.53Y-140.33
X167.53Y-142.87
X169.286Y-67.746
X169.286Y-70.286
X170.07Y-112.39
X170.07Y-114.93
X170.07Y-140.33
X170.07Y-142.87
X171.826Y-67.746
X171.826Y-70.286
X172.61Y-112.39
X172.61Y-114.93
X172.61Y-140.33
X172.61Y-142.87
X174.366Y-67.746
X174.366Y-70.286
X175.15Y-112.39
X175.15Y-114.93
X175.15Y-140.33
X175.15Y-142.87
X175.36Y-75.66
X175.36Y-78.2
X176.906Y-67.746
X176.906Y-70.286
X177.69Y-112.39
X177.69Y-114.93
X177.69Y-140.33
X177.69Y-142.87
X177.9Y-75.66
X177.9Y-78.2
X179.446Y-67.746
X179.446Y-70.286
X180.23Y-112.39
X180.23Y-114.93
X180.23Y-140.33
X180.23Y-142.87
X180.9Y-92.6
X183.44Y-92.6
X184.3Y-67.76
X184.3Y-70.3
X185.96Y-115.42
X185.96Y-117.96
X185.96Y-120.5
X185.96Y-123.04
X185.96Y-125.58
X188.5Y-115.42
X188.5Y-117.96
X188.5Y-120.5
X188.5Y-123.04
X188.5Y-125.58
X194.Y-74.32
X194.Y-76.86
X194.Y-79.4
X194.Y-81.94
X194.Y-84.48
X194.Y-87.02
X194.Y-89.56
X194.Y-92.1
X196.54Y-74.32
X196.54Y-76.86
X196.54Y-79.4
X196.54Y-81.94
X196.54Y-84.48
X196.54Y-87.02
X196.54Y-89.56
X196.54Y-92.1
T6
X103.5Y-56.82
X103.5Y-61.9
X103.5Y-66.98
X103.5Y-72.06
X103.5Y-77.14
X103.5Y-82.22
X103.5Y-87.3
X103.5Y-92.38
X103.5Y-97.46
X103.5Y-102.54
X103.5Y-107.62
X103.5Y-112.7
X103.5Y-117.78
X103.5Y-122.86
X103.5Y-127.94
X103.5Y-133.02
X103.5Y-138.1
X103.5Y-143.18
T7
X194.97Y-115.
T8
X109.Y-55.
X109.Y-145.
X195.Y-55.
X195.Y-145.
T4
X188.5Y-65.199G85X188.5Y-63.201
G05
X192.499Y-59.501G85X190.5Y-59.501
G05
X194.499Y-65.199G85X194.499Y-63.201
G05
T0
M30
