M48
;DRILL file {KiCad 4.0.2-stable} date Montag, 25. April 2016 19:54:54
;FORMAT={-:-/ absolute / metric / decimal}
FMAT,2
METRIC,TZ
T1C0.600
T2C0.800
T3C0.900
T4C1.016
T5C1.300
T6C1.524
T7C3.100
%
G90
G05
M71
T1
X162.83Y-125.6
X164.1Y-125.6
X165.37Y-125.6
X168.33Y-125.6
X169.6Y-125.6
X170.87Y-125.6
T2
X111.7Y-62.6
X111.7Y-76.4
X111.7Y-93.1
X111.7Y-106.9
X114.2Y-116.3
X114.2Y-125.
X114.2Y-133.7
X114.2Y-142.4
X115.2Y-62.6
X115.2Y-76.4
X115.2Y-93.1
X115.2Y-106.9
X117.7Y-116.3
X117.7Y-125.
X117.7Y-133.7
X117.7Y-142.4
X156.6Y-54.4
X156.6Y-59.4
X175.Y-54.4
X175.Y-59.4
T3
X133.4Y-100.
X137.5Y-72.4
X137.7Y-104.3
X141.5Y-72.4
X146.368Y-82.915
X152.8Y-83.2
X157.2Y-97.2
X159.2Y-106.4
X167.699Y-112.724
X168.6Y-90.
X169.112Y-73.
X174.Y-112.2
X175.8Y-98.989
X177.75Y-105.5
X178.454Y-90.816
X181.Y-93.4
X181.Y-98.7
X188.3Y-97.
X189.2Y-85.
X190.Y-90.1
X190.4Y-87.5
X196.8Y-106.5
T4
X125.6Y-123.56
X125.6Y-126.1
X125.6Y-128.64
X125.6Y-132.36
X125.6Y-134.9
X125.6Y-137.44
X148.966Y-67.746
X148.966Y-70.286
X151.506Y-67.746
X151.506Y-70.286
X154.046Y-67.746
X154.046Y-70.286
X155.124Y-116.412
X155.124Y-118.952
X155.124Y-144.352
X155.124Y-146.892
X156.586Y-67.746
X156.586Y-70.286
X157.664Y-116.412
X157.664Y-118.952
X157.664Y-144.352
X157.664Y-146.892
X159.126Y-67.746
X159.126Y-70.286
X160.204Y-116.412
X160.204Y-118.952
X160.204Y-144.352
X160.204Y-146.892
X161.666Y-67.746
X161.666Y-70.286
X162.744Y-116.412
X162.744Y-118.952
X162.744Y-144.352
X162.744Y-146.892
X164.206Y-67.746
X164.206Y-70.286
X165.284Y-116.412
X165.284Y-118.952
X165.284Y-144.352
X165.284Y-146.892
X166.746Y-67.746
X166.746Y-70.286
X167.824Y-116.412
X167.824Y-118.952
X167.824Y-144.352
X167.824Y-146.892
X169.286Y-67.746
X169.286Y-70.286
X170.364Y-116.412
X170.364Y-118.952
X170.364Y-144.352
X170.364Y-146.892
X171.826Y-67.746
X171.826Y-70.286
X172.904Y-116.412
X172.904Y-118.952
X172.904Y-144.352
X172.904Y-146.892
X174.366Y-67.746
X174.366Y-70.286
X175.36Y-75.66
X175.36Y-78.2
X175.444Y-116.412
X175.444Y-118.952
X175.444Y-144.352
X175.444Y-146.892
X176.906Y-67.746
X176.906Y-70.286
X177.9Y-75.66
X177.9Y-78.2
X177.984Y-116.412
X177.984Y-118.952
X177.984Y-144.352
X177.984Y-146.892
X179.446Y-67.746
X179.446Y-70.286
X182.Y-116.42
X182.Y-118.96
X182.Y-121.5
X182.Y-124.04
X182.Y-126.58
X184.54Y-116.42
X184.54Y-118.96
X184.54Y-121.5
X184.54Y-124.04
X184.54Y-126.58
X193.9Y-72.4
X194.Y-77.35
X194.Y-79.89
X194.Y-82.43
X194.Y-84.97
X194.Y-87.51
X194.Y-90.05
X194.Y-92.59
X194.Y-95.13
X194.Y-97.67
X194.Y-100.21
X194.Y-102.75
X196.44Y-72.4
X196.54Y-77.35
X196.54Y-79.89
X196.54Y-82.43
X196.54Y-84.97
X196.54Y-87.51
X196.54Y-90.05
X196.54Y-92.59
X196.54Y-95.13
X196.54Y-97.67
X196.54Y-100.21
X196.54Y-102.75
T5
X103.5Y-56.82
X103.5Y-61.9
X103.5Y-66.98
X103.5Y-72.06
X103.5Y-77.14
X103.5Y-82.22
X103.5Y-87.3
X103.5Y-92.38
X103.5Y-97.46
X103.5Y-102.54
X103.5Y-107.62
X103.5Y-112.7
X103.5Y-117.78
X103.5Y-122.86
X103.5Y-127.94
X103.5Y-133.02
X103.5Y-138.1
X103.5Y-143.18
T6
X195.3Y-61.46
X195.3Y-66.54
T7
X109.Y-55.
X109.Y-145.
X195.Y-55.
X195.Y-145.
T0
M30
