M48
;DRILL file {KiCad 4.0.2-stable} date Sonntag, 29. Mai 2016 18:41:27
;FORMAT={-:-/ absolute / metric / decimal}
FMAT,2
METRIC,TZ
T1C0.600
T2C0.800
T3C0.900
T4C1.001
T5C1.016
T6C1.300
T7C1.500
T8C3.100
%
G90
G05
M71
T1
X165.Y-121.6
X166.27Y-121.6
X167.54Y-121.6
X170.5Y-121.6
X171.77Y-121.6
X173.04Y-121.6
T2
X110.9Y-60.8
X110.9Y-66.6
X110.9Y-72.4
X110.9Y-78.2
X110.9Y-91.3
X110.9Y-97.1
X110.9Y-102.9
X110.9Y-108.7
X112.9Y-60.8
X112.9Y-66.6
X112.9Y-72.4
X112.9Y-78.2
X112.9Y-91.3
X112.9Y-97.1
X112.9Y-102.9
X112.9Y-108.7
X114.2Y-116.3
X114.2Y-125.
X114.2Y-133.7
X114.2Y-142.4
X117.7Y-116.3
X117.7Y-125.
X117.7Y-133.7
X117.7Y-142.4
X128.2Y-58.7
X128.2Y-80.3
X128.2Y-89.2
X128.2Y-110.8
X130.2Y-58.7
X130.2Y-80.3
X130.2Y-89.2
X130.2Y-110.8
X134.2Y-119.5
X134.2Y-121.5
X140.Y-119.5
X140.Y-121.5
X155.6Y-54.4
X155.6Y-59.4
X174.Y-54.4
X174.Y-59.4
X194.23Y-71.075
X194.23Y-73.615
X194.23Y-76.155
X194.23Y-78.695
X194.23Y-81.235
X194.23Y-83.775
X194.23Y-86.315
X194.23Y-88.855
X194.23Y-94.13
X194.23Y-96.67
X194.23Y-99.21
X194.23Y-101.75
X194.23Y-104.29
X194.23Y-106.83
X196.77Y-72.345
X196.77Y-74.885
X196.77Y-77.425
X196.77Y-79.965
X196.77Y-82.505
X196.77Y-85.045
X196.77Y-87.585
X196.77Y-90.125
X196.77Y-95.4
X196.77Y-97.94
X196.77Y-100.48
X196.77Y-103.02
X196.77Y-105.56
X196.77Y-108.1
T3
X130.6Y-130.5
X131.6Y-119.4
X133.9Y-99.3
X134.Y-70.6
X136.3Y-128.
X137.5Y-102.9
X137.8Y-52.
X137.8Y-66.8
X141.1Y-90.2
X146.345Y-77.955
X146.368Y-82.915
X150.3Y-84.6
X150.7Y-106.7
X150.7Y-113.4
X157.4Y-122.6
X157.4Y-129.
X161.1Y-76.7
X165.7Y-100.5
X165.75Y-96.3
X166.1Y-76.7
X168.6Y-90.
X169.2Y-52.
X171.4Y-94.1
X171.8Y-73.6
X173.5Y-104.2
X174.2Y-92.7
X175.5Y-88.1
X175.5Y-90.7
X176.1Y-103.2
X177.4Y-89.4
X177.5Y-98.2
X179.6Y-96.3
X180.135Y-125.565
X181.2Y-105.6
X182.4Y-112.4
X183.5Y-115.6
X183.5Y-119.3
X184.3Y-110.9
X184.7Y-96.3
X184.8Y-102.5
X185.209Y-98.234
X189.9Y-100.5
X192.8Y-113.
X194.8Y-111.7
T5
X116.6Y-60.36
X116.6Y-62.9
X116.6Y-65.44
X116.6Y-73.56
X116.6Y-76.1
X116.6Y-78.64
X116.6Y-90.96
X116.6Y-93.5
X116.6Y-96.04
X116.6Y-103.96
X116.6Y-106.5
X116.6Y-109.04
X125.6Y-123.62
X125.6Y-126.16
X125.6Y-128.7
X125.6Y-132.36
X125.6Y-134.9
X125.6Y-137.44
X148.966Y-67.746
X148.966Y-70.286
X151.506Y-67.746
X151.506Y-70.286
X154.046Y-67.746
X154.046Y-70.286
X156.586Y-67.746
X156.586Y-70.286
X157.37Y-112.39
X157.37Y-114.93
X157.37Y-140.33
X157.37Y-142.87
X159.126Y-67.746
X159.126Y-70.286
X159.91Y-112.39
X159.91Y-114.93
X159.91Y-140.33
X159.91Y-142.87
X161.666Y-67.746
X161.666Y-70.286
X162.45Y-112.39
X162.45Y-114.93
X162.45Y-140.33
X162.45Y-142.87
X164.206Y-67.746
X164.206Y-70.286
X164.99Y-112.39
X164.99Y-114.93
X164.99Y-140.33
X164.99Y-142.87
X166.746Y-67.746
X166.746Y-70.286
X167.53Y-112.39
X167.53Y-114.93
X167.53Y-140.33
X167.53Y-142.87
X169.286Y-67.746
X169.286Y-70.286
X170.07Y-112.39
X170.07Y-114.93
X170.07Y-140.33
X170.07Y-142.87
X171.826Y-67.746
X171.826Y-70.286
X172.61Y-112.39
X172.61Y-114.93
X172.61Y-140.33
X172.61Y-142.87
X174.366Y-67.746
X174.366Y-70.286
X175.15Y-112.39
X175.15Y-114.93
X175.15Y-140.33
X175.15Y-142.87
X175.36Y-75.66
X175.36Y-78.2
X176.906Y-67.746
X176.906Y-70.286
X177.69Y-112.39
X177.69Y-114.93
X177.69Y-140.33
X177.69Y-142.87
X177.9Y-75.66
X177.9Y-78.2
X179.446Y-67.746
X179.446Y-70.286
X180.23Y-112.39
X180.23Y-114.93
X180.23Y-140.33
X180.23Y-142.87
X180.9Y-92.6
X183.44Y-92.6
X184.3Y-67.76
X184.3Y-70.3
X185.96Y-115.42
X185.96Y-117.96
X185.96Y-120.5
X185.96Y-123.04
X185.96Y-125.58
X188.5Y-115.42
X188.5Y-117.96
X188.5Y-120.5
X188.5Y-123.04
X188.5Y-125.58
T6
X103.5Y-56.82
X103.5Y-61.9
X103.5Y-66.98
X103.5Y-72.06
X103.5Y-77.14
X103.5Y-82.22
X103.5Y-87.3
X103.5Y-92.38
X103.5Y-97.46
X103.5Y-102.54
X103.5Y-107.62
X103.5Y-112.7
X103.5Y-117.78
X103.5Y-122.86
X103.5Y-127.94
X103.5Y-133.02
X103.5Y-138.1
X103.5Y-143.18
T7
X194.97Y-91.525
X194.97Y-109.5
T8
X109.Y-55.
X109.Y-145.
X195.Y-55.
X195.Y-145.
T4
X188.5Y-65.199G85X188.5Y-63.201
G05
X192.499Y-59.501G85X190.5Y-59.501
G05
X194.499Y-65.199G85X194.499Y-63.201
G05
T0
M30
